<svg width="160" height="64" viewBox="0 0 160 64" fill="none" xmlns="http://www.w3.org/2000/svg">
<rect x="32" width="64" height="64" fill="#EB7565"/>
<circle cx="16" cy="16" r="14" stroke="#030303" stroke-width="4"/>
<circle cx="64" cy="32" r="14" stroke="#FFF7F0" stroke-width="4"/>
<rect x="128" y="32" width="4" height="4" fill="#030303"/>
<rect x="142" y="32" width="4" height="4" fill="#030303"/>
<rect x="156" y="32" width="4" height="4" fill="#030303"/>
<rect x="128" y="56" width="4" height="4" fill="#030303"/>
<rect x="142" y="56" width="4" height="4" fill="#030303"/>
<rect x="156" y="56" width="4" height="4" fill="#030303"/>
<rect x="128" y="60" width="4" height="4" fill="#030303"/>
<rect x="142" y="60" width="4" height="4" fill="#030303"/>
<rect x="156" y="60" width="4" height="4" fill="#030303"/>
<rect x="128" width="4" height="4" fill="#030303"/>
<rect x="142" width="4" height="4" fill="#030303"/>
<rect x="156" width="4" height="4" fill="#030303"/>
<rect x="128" y="4" width="4" height="4" fill="#030303"/>
<rect x="142" y="4" width="4" height="4" fill="#030303"/>
<rect x="156" y="4" width="4" height="4" fill="#030303"/>
<rect x="128" y="28" width="4" height="4" fill="#030303"/>
<rect x="142" y="28" width="4" height="4" fill="#030303"/>
<rect x="156" y="28" width="4" height="4" fill="#030303"/>
<path fill-rule="evenodd" clip-rule="evenodd" d="M96 32L128 64V32H96Z" fill="#FFF7F0"/>
<path fill-rule="evenodd" clip-rule="evenodd" d="M96 32L128 64V32H96Z" fill="#552049"/>
<path fill-rule="evenodd" clip-rule="evenodd" d="M32 64L0 32V64H32Z" fill="#F39E9E"/>
<path fill-rule="evenodd" clip-rule="evenodd" d="M96 32L128 0V32H96Z" fill="#FFF7F0"/>
</svg>
